<svg xmlns="http://www.w3.org/2000/svg" viewBox="0 0 58 58">
    <path fill="#555" d="M29 0C12.984 0 0 12.984 0 29s12.984 29 29 29c26.688 0-.203-16.043 5-21 5.545-5.282 24 2.688 24-8C58 12.984 45.016 0 29 0zm4.38 32.008c-1.439.009-3.581.156-4.38.918-1.286 1.226-1.382 2.83-1.038 4.162a1.06 1.06 0 0 1-1.473 1.233c-2.267-1.026-3.777-3.438-3.442-6.149a5.96 5.96 0 0 1 4.967-5.103 5.93 5.93 0 0 1 6.324 3.459 1.06 1.06 0 0 1-.958 1.48z"/>
    <circle fill="#fff" cx="29" cy="50" r="4"/>
    <circle fill="#8cf" cx="14.151" cy="43.849" r="4"/>
    <circle fill="#4ae" cx="8" cy="29" r="4"/>
    <circle fill="#c33" cx="14.151" cy="14.151" r="4"/>
    <circle fill="#f90" cx="29" cy="8" r="4"/>
    <circle fill="#fc2" cx="42" cy="14.151" r="4"/>
    <circle fill="#080" cx="50" cy="27" r="4"/>
</svg>