<?xml version="1.0" encoding="utf-8"?>
<!-- Generator: Adobe Illustrator 26.5.0, SVG Export Plug-In . SVG Version: 6.00 Build 0)  -->
<svg version="1.1" id="Ebene_1" xmlns="http://www.w3.org/2000/svg" xmlns:xlink="http://www.w3.org/1999/xlink" x="0px" y="0px" viewBox="0 0 142.4 183.7" style="enable-background:new 0 0 142.4 183.7;" xml:space="preserve" transform="rotate(270 71.0 92.0)">
<style type="text/css">
	.st0{fill:#FFFFFF;}
	.st1{fill:#E4ECF4;}
	.st2{fill:#D0E0EF;}
	.st3{fill:none;stroke:#000000;stroke-width:0.5;stroke-linecap:round;stroke-linejoin:round;}
	.st4{font-family:'ArialMT';}
	.st5{font-size:19.9725px;}
</style>
<g transform="matrix( 1, 0, 0, 1, 0,0) ">
	<g>
		<g id="Layer0_0_FILL">
			<path class="st0" d="M110.2,106c0-0.1,0-0.2,0-0.3c-26.5,1.5-53.6-2.3-81.2-11.6c9.3,23.5,24.9,51.1,46.6,82.8c0,0,0,0.1,0.1,0.1
				c0,0.1,0,0.1,0.1,0.2l0.1,0.1c0.1,0.1,0.2,0.2,0.2,0.3c0.6,0.6,1.1,1,1.6,1.2c0.6,0.2,1.3,0,2.2-0.4c1.6-0.8,3.4-2.8,5.4-5.9
				c1.9-3,4.3-5.3,7-6.7c0.3-0.1,0.6-0.3,0.9-0.4c0.8-0.3,1.6-0.6,2.3-0.9c3.5-1.2,6.5-1.8,9-1.8c2.8,0,5.1-0.5,7-1.4
				c1.4-0.7,2.2-1.3,2.3-1.7c0.3-0.9,1.2-2.1,2.6-3.6c0.7-0.7,1.6-1.8,2.5-3.2c1.1-1.6,1.7-2.7,1.8-3.2c0.4-3.1,0.6-5.7,0.6-7.7
				c0.1-3.5-0.3-6.3-1.3-8.3v-0.1c0.5-0.2,0.1-0.9-1.2-2c-2.4-2-4-3.4-4.8-4.2c-0.5-0.5-1.4-1.1-2.9-1.8c-1.1-0.6-1.9-1.4-2.4-2.3
				c-0.2-0.4,0.1-1.2,1-2.4c1-1.2,1.5-2,1.4-2.2c0-0.5-0.4-1.4-1-2.8c-0.5-1.3-0.7-2-0.6-2c-0.3-0.2-0.5-0.6-0.5-1.1
				c-0.2-1,0.1-2.1,1-3.4c0.3-0.3,0.4-0.7,0.5-1.3C110.6,107.5,110.5,106.7,110.2,106z"/>
			<path class="st1" d="M72.9,67.6c-0.1,0-0.2-0.1-0.2-0.2v0.1c0.2,0.1,0.4,0.3,0.9,0.6L72.9,67.6 M40.2,60.1
				C40.3,60.2,40.3,60.2,40.2,60.1c-1.3,0.7-2.7,0.6-4.3-0.2c-0.8-0.5-1.3-0.9-1.8-1.3c-2.8-1.4-6.2-2.3-10.3-2.7
				c-2.8-0.3-4.4-0.5-4.8-0.5l-0.1,0.1c1,11.4,4.3,24.3,10.1,38.7c27.6,9.2,54.7,13.1,81.2,11.6c0-0.1,0-0.1,0-0.1l0.1,0.1
				c-0.2-0.9-0.2-2.1,0.1-3.4c0.5-1.9,0.8-3.2,1-3.9c0.3-1,0.2-2.5-0.2-4.5c-0.5-2.2-0.6-3.6-0.6-4.3l4.4-4.6
				c-2.1-3.6-4.3-5.2-6.8-5.1c-1.5,0.1-3-0.3-4.4-1.2c-1.1-0.7-2.3-0.7-3.6-0.1c-1.6,0.8-3.5,2.3-5.8,4.5s-3.9,3.5-5,4.1
				c-1.3,0.7-2.2,0.7-2.8,0.2c-0.9-0.9-2-1.6-3.4-1.8c-1.8-0.2-3-0.3-3.6-0.5c-1.1-0.3-1.9-1-2.5-2.1s-0.6-2.9,0-5.6
				c0.5-2.7,0.4-4.8-0.4-6.2c-0.3-0.6-0.9-1.2-1.6-1.8c-0.3-0.2-0.5-0.3-0.8-0.5c-0.9-0.5-1.5-0.9-1.9-1.3c-0.2,0.2-0.3,0.2-0.4-0.1
				c-0.1-0.2-0.1-0.4-0.1-0.6c-2.5-2.1-4.6-4.1-6.3-5.9c-3.1-3.6-5.4-5.9-6.9-6.8c-1.7-1.1-5.6-0.1-11.8,2.8
				C43.6,58.6,41.3,59.7,40.2,60.1z"/>
			<path class="st2" d="M23.6,49.1c-2.1-0.3-3.8-0.6-5.3-0.9c0.2,3,0.5,5.4,0.8,7.2c0.4,0,2.1,0.2,4.8,0.5c4.1,0.4,7.5,1.3,10.3,2.7
				c-0.5-0.7-0.9-1.3-1.2-1.8c-0.6-2-1-3.1-1.2-3.5C30.9,51.5,28.1,50.1,23.6,49.1 M56.7,36.2c-1.3,0-2.6,0.3-3.9,1
				c-2.2,1.1-3.7,2.2-4.5,3.2c-0.8,0.9-1.6,1.6-2.5,2.1c-1.5,0.8-3.3,0.8-5.5,0.2c-2.2-0.7-3.8-0.8-4.8-0.2
				c-0.4,0.2-0.7,0.8-1.1,1.7l1.2,1.4c0.2,0.5,0.9,1,2.1,1.4c1.2,0.5,2.2,1.1,3,1.9c-3,1.4-4.2,2.8-3.5,4.1c0.4,0.7,0.9,1.3,1.6,1.6
				c0.7,0.3,1.3,0.8,1.6,1.4c0,0,0.1,0.7,0.4,1.9c0.1,0.8,0,1.4-0.2,1.8c0,0-0.2,0.2-0.8,0.5c0.2,0,0.4,0,0.4,0
				c1.1-0.4,3.4-1.5,6.8-3.2c6.1-2.9,10-3.9,11.8-2.8c1.5,0.9,3.8,3.2,6.9,6.8c1.7,1.9,3.8,3.9,6.3,5.9c0-0.4-0.1-0.9-0.1-1.6
				c-0.1-0.8,0.1-1.3,0.4-1.6c0.3-0.4,1.3-1,2.8-1.7s4.2-0.4,8,0.8c3.8,1.2,9,2.6,15.6,4.3c2.3,0.6,6,0.8,11,0.7
				c5.1-0.1,8.9-0.4,11.4-0.8c2.6-0.4,4.8-1.1,6.4-1.9c1.6-0.9,3.5-2.1,5.9-3.6c-4.3,0.3-9.3,0.9-15,1.7c-5.8,0.8-9.9,0.8-12.4,0
				c-2.4-0.8-5.8-1.5-10-2.1s-6.8-0.9-7.7-1c-0.8-0.1-2.1-0.3-3.8-0.6c-1.6-0.2-2.8-0.3-3.5-0.4c-0.7-0.1-1.6-0.3-2.7-0.6
				c-2-0.6-4.1-1-6.2-1.2C72,57.2,72,57.2,72,57.1c-3.3-3.4-5.8-7.5-7.4-12.2c-1.7-4.9-3.5-7.7-5.5-8.4
				C58.3,36.3,57.5,36.2,56.7,36.2L55,46.5L56.7,36.2z"/>
		</g>
	</g>
	<g>
		<path id="Layer0_0_1_STROKES" class="st3" d="M56.7,36.2l0.4-2.8 M39.9,60.1c0.5-0.3,0.8-0.4,0.8-0.5c0.2-0.4,0.3-1,0.2-1.8
			c-0.3-1.3-0.4-1.9-0.4-1.9c-0.3-0.6-0.9-1.1-1.6-1.4c-0.7-0.3-1.3-0.8-1.6-1.6c-0.7-1.4,0.5-2.8,3.5-4.1c-0.8-0.8-1.8-1.4-3-1.9
			s-1.9-0.9-2.1-1.4l-1.2-1.4c0.4-0.9,0.8-1.5,1.1-1.7c1-0.5,2.6-0.4,4.8,0.2c2.1,0.7,4,0.6,5.5-0.2c0.9-0.5,1.7-1.2,2.5-2.1
			c0.8-1,2.3-2,4.5-3.2c1.3-0.7,2.6-1,3.9-1c0.8-0.1,1.6,0,2.4,0.2c2,0.6,3.9,3.4,5.5,8.4c1.6,4.7,4.1,8.8,7.4,12.2
			c0,0.1,0.1,0.1,0.1,0.2c2.1,0.3,4.1,0.7,6.2,1.2c1.1,0.3,2,0.5,2.7,0.6s1.9,0.2,3.5,0.4c1.7,0.2,2.9,0.4,3.8,0.6
			c0.9,0.1,3.5,0.4,7.7,1s7.6,1.2,10,2.1c2.5,0.8,6.6,0.8,12.4,0c5.7-0.8,10.8-1.4,15-1.7l-1.6,1.7v0.1c-0.1,0-0.1,0-0.2,0
			c-3.4,3.3-6.2,5.6-8.3,6.7c-1.3,0.7-2.5,1.1-3.6,1.2c-1,0.1-1.8,0.3-2.4,0.6c-1.8,0.9-2.6,2.7-2.4,5.2c0.2,1.5,0.2,4.1,0.1,7.7
			l0.5-0.5 M34.2,58.6c0.4,0.4,1,0.8,1.8,1.3c1.6,0.9,3,1,4.3,0.3c0.1,0,0.1-0.1,0-0.1c-0.7,0.3-0.9,0.3-0.4,0c0.2,0,0.4,0,0.4,0
			 M72,66.8c0-0.4-0.1-0.9-0.1-1.6c-0.1-0.8,0.1-1.3,0.4-1.6c0.3-0.4,1.3-1,2.8-1.7s4.2-0.4,8,0.8s9,2.6,15.6,4.3
			c2.3,0.6,6,0.8,11,0.7c5.1-0.1,8.9-0.4,11.4-0.8c2.6-0.4,4.8-1.1,6.4-1.9c1.6-0.9,3.5-2.1,5.9-3.6 M19,55.4
			c-0.3-1.8-0.5-4.2-0.8-7.2c1.5,0.3,3.3,0.6,5.3,0.9c4.5,1,7.2,2.4,8.2,4.2c0.2,0.4,0.6,1.5,1.2,3.5c0.3,0.5,0.7,1.1,1.2,1.8
			 M19,55.4l-0.1,0.1c1,11.4,4.3,24.3,10.1,38.7 M110.2,105.7C110.2,105.6,110.2,105.6,110.2,105.7L110.2,105.7
			c-0.1-0.9-0.1-2.1,0.2-3.4c0.5-1.9,0.8-3.2,1-3.9c0.3-1,0.2-2.5-0.2-4.5c-0.5-2.2-0.6-3.6-0.6-4.3L115,85
			c-2.1-3.6-4.3-5.2-6.8-5.1c-1.5,0.1-3-0.3-4.4-1.2c-1.1-0.7-2.3-0.7-3.6-0.1c-1.6,0.8-3.5,2.3-5.8,4.5s-3.9,3.5-5,4.1
			c-1.3,0.7-2.2,0.7-2.8,0.2c-0.9-0.9-2-1.6-3.4-1.8c-1.8-0.2-3-0.3-3.6-0.5c-1.1-0.3-1.9-1-2.5-2.1s-0.6-2.9,0-5.6
			c0.5-2.7,0.4-4.8-0.4-6.2c-0.3-0.6-0.9-1.2-1.6-1.8c-0.3-0.2-0.5-0.3-0.8-0.5c-0.9-0.5-1.5-0.9-1.9-1.3 M72,66.8
			c0.2,0.2,0.5,0.4,0.7,0.6c0.7,0.5,1.4,1.1,2.1,1.6l0.3,0.4 M56.7,36.2L55,46.5 M73.5,68l1.3,1 M72.7,67.5
			C72.6,67.6,72.6,67.6,72.7,67.5c-0.3-0.1-0.4-0.2-0.5-0.3L72.7,67.5L72.7,67.5c0.1,0,0.1,0.1,0.2,0.1l0.6,0.4
			C73.1,67.8,72.8,67.6,72.7,67.5z M131.7,63.2l0.2-0.1 M114.9,85l0.2-0.2 M110.2,105.7C110.2,105.7,110.3,105.7,110.2,105.7
			 M29,94.2c9.3,23.5,24.9,51.1,46.6,82.8c0,0,0,0.1,0.1,0.1c0,0.1,0,0.1,0.1,0.2l0.1,0.1c0.1,0.1,0.2,0.2,0.2,0.3
			c0.6,0.6,1.1,1,1.6,1.2c0.6,0.2,1.3,0,2.2-0.4c1.6-0.8,3.4-2.8,5.4-5.9c1.9-3,4.3-5.3,7-6.7c0.3-0.1,0.6-0.3,0.9-0.4
			c0.8-0.3,1.6-0.6,2.3-0.9c3.5-1.2,6.5-1.8,9-1.8c2.8,0,5.1-0.5,7-1.4c1.4-0.7,2.2-1.3,2.3-1.7c0.3-0.9,1.2-2.1,2.6-3.6
			c0.7-0.7,1.6-1.8,2.5-3.2c1.1-1.6,1.7-2.7,1.8-3.2c0.4-3.1,0.6-5.7,0.6-7.7c0.1-3.5-0.3-6.3-1.3-8.3v-0.1c0.5-0.2,0.1-0.9-1.2-2
			c-2.4-2-4-3.4-4.8-4.2c-0.5-0.5-1.4-1.1-2.9-1.8c-1.1-0.6-1.9-1.4-2.4-2.3c-0.2-0.4,0.1-1.2,1-2.4c1-1.2,1.5-2,1.4-2.2
			c0-0.5-0.4-1.4-1-2.8c-0.5-1.3-0.7-2-0.6-2c-0.3-0.2-0.5-0.6-0.5-1.1c-0.2-1,0.1-2.1,1-3.4c0.3-0.3,0.4-0.7,0.5-1.3
			c0.1-0.7,0-1.4-0.3-2.1c0-0.1,0-0.2,0-0.3"/>
	</g>
</g>
<g transform="matrix( 0.454071044921875, 0.88946533203125, -0.88946533203125, 0.454071044921875, 240.05,175.15) ">
	<g>
		<text transform="matrix(1.0013 0 0 1.0013 -180.5472 134.0195)" class="st4 st5">II</text>
	</g>
</g>
<g transform="matrix( 0.454071044921875, 0.88946533203125, -0.88946533203125, 0.454071044921875, 271.75,225.5) ">
	<g>
		<text transform="matrix(1.0013 0 0 1.0013 -180.5472 134.0193)" class="st4 st5">I</text>
	</g>
</g>
<g transform="matrix( 0.454071044921875, 0.88946533203125, -0.88946533203125, 0.454071044921875, 251.35,118.75) ">
	<g>
		<text transform="matrix(1.0013 0 0 1.0013 -180.5478 134.0197)" class="st4 st5">III</text>
	</g>
</g>
</svg>
