<svg id="Livello_1" data-name="Livello 1" xmlns="http://www.w3.org/2000/svg" viewBox="0 0 425.2 425.2"><defs><style>.cls-1{fill:#fff;}</style></defs><title>Read-com rounded icon</title><rect class="cls-1" width="425.2" height="425.2" rx="69.4" ry="69.4"/><path d="M338.3,369.9h-4.9V333c0-3.5-1.4-5.4-4.9-6.1s-5.4-.4-7.7,1.3a4.2,4.2,0,0,0-1.9,3.8v37.9H314V333c0-3.6-1.4-5.5-5-6.1a9.5,9.5,0,0,0-7.5,1.2,4.8,4.8,0,0,0-2,4v37.7h-4.9V332.7c0-5.5,3-9.3,8.4-10.6l1.8-.4h4.1c2.8.7,5.5,1.5,7.3,3.6a47.6,47.6,0,0,1,4.8-2.7l3.2-.9h4.1c1.3.4,2.6.7,3.8,1.2a10.5,10.5,0,0,1,6.3,7Z"/><path d="M244,346.5a24.1,24.1,0,1,1,0,.1Zm24,19.2a19.2,19.2,0,1,0-19.2-19.1A19.1,19.1,0,0,0,268,365.7Z"/><path d="M160.7,322.3c10.7-.3,20,2.5,27,10.9a21.1,21.1,0,0,1-1.4,28.5,31.2,31.2,0,0,1-22.1,9.2h-3.5Zm4.9,43.6h.6c7-.8,13.1-3.4,17.7-9a15.8,15.8,0,0,0,.8-19.5c-4.6-6.5-11.4-9.3-19.1-10.2Z"/><path d="M74.5,358v12.8H69.8V357.3a20.9,20.9,0,0,0-13,2.5,36.8,36.8,0,0,1,1.5-4.7,3.5,3.5,0,0,1,2.1-1.2c2.7-.4,5.3-.6,8-.8h1.3V323a21.7,21.7,0,0,1,10.7,1.5c5.6,2.4,9.7,6.4,11,12.6s-1.9,14-8.5,17.9L81,356l1.2.6A45.7,45.7,0,0,1,97.8,370c1,1.5,1.5,2.8,0,4.3C91.5,367,84.5,360.5,74.5,358Zm.1-29.9v24.5c6.2-.3,12-6.1,12.2-12s-5.5-11.9-12.2-12.5Z"/><path d="M155,370.6h-5V333.2a4.7,4.7,0,0,0-2.2-4.1c-3.4-2.3-9.9-2.2-13.3.1a4.5,4.5,0,0,0-2,3.9v37.4h-5v-1.3c0-11.9.1-23.8,0-35.8a9.4,9.4,0,0,1,4.7-8.5c5.4-3.5,14.7-3,19.4,1a9,9,0,0,1,3.3,6.9v37.8Z"/><path d="M99.3,347.6h20.9v4.8H100a18.9,18.9,0,0,0,6.5,10,17.1,17.1,0,0,0,11,4v5c-7.4-.2-13.4-3.1-17.8-9-6.3-8.4-7-17.5-2.5-27,3.8-7.9,12.2-13,20.3-12.8v4.9a18.1,18.1,0,0,0-14.7,8A20,20,0,0,0,99.3,347.6Z"/><path d="M244.6,322.4v4.2a.7.7,0,0,1-.1.5,25.8,25.8,0,0,0-11.1,3.5,25,25,0,0,0-7.7,6.8c-5,6.8-4.5,14.9,1.3,21.2a22.8,22.8,0,0,0,17.4,7.7v4.8a20.9,20.9,0,0,1-8.6-1.2,26.6,26.6,0,0,1-15.3-11.8c-4.5-7.6-4.4-15.3.5-22.5a29.5,29.5,0,0,1,22.3-13.3h1.3Z"/><path d="M141.3,354.9a4.8,4.8,0,0,1-5-4.7V350a5.2,5.2,0,0,1,4.9-5.1,5,5,0,0,1,5.1,4.9,4.9,4.9,0,0,1-4.9,5.1Z"/><path d="M210.4,346.1v5H197.8v-5Z"/><path d="M84,209.1c-.2,1.7,1,4.4,2.4,5.2,14.4,8.5,23.2,22.3,32.9,35.2,3.7,4.8,8.1,9.2,11.3,14.3,6,9.5,11.6,19.4,17,29.3,2.5,4.5,5.4,4,9.1,2.1,9.3-4.8,18.1-10.9,27.9-13.9,18.5-5.5,37.4-6,55.5,2.2,4.7,2.2,8.1,2,12.3-1.1,14.8-11.1,31-19.6,49.6-22,6.6-.8,11.6-3.8,18.8-3.9-2.6-5-2.7-5.7-6-10.5s-3.1-6.7-1.7-10.8.9-9-4.5-13.1c-12.6-9.6-24.1-20.6-36.2-30.8-3.8-3.3-6.3-4.7-11.6-8.5,5.3-7.4,9.5-12.1,17.1-16.7-5.6-3.8-10.8-7.7-16.4-11-9.9-5.7-20-11-30.1-16.3-3.2-1.7-13-6.4-13-6.4a3.4,3.4,0,0,1-.6,1.5c8.1,5.2,16.3,9.5,24.4,14.6l27.9,17.2c-22.7,24-32.2,46.3-31.1,85.6-1-.4-2.2-.5-2.8-1.1-5.8-6.5-11.5-13.2-17.4-19.6s-10.1-11.3-16.1-15.7-21.4-17.7-21.4-17.7.3-27.9,2-37.8A74.3,74.3,0,0,1,197.8,126c7.3,2.5,13.5,5.7,20,7.9a9.4,9.4,0,0,0,.6-1.5l-17.9-8.7c-1.4-.6-4.7.4-5.4,1.7-4.5,7.2-9.4,14.3-12.3,22.1-5.9,15.8-5.6,32.5-4.5,49.2a228.2,228.2,0,0,0-79.2-9c-1.4,6.2-2.7,12-4,17.6C86.7,202.1,84.6,202.7,84,209.1Zm20.4-14.7c3,2.2,6.1,4.1,9.2,6.2a45.4,45.4,0,0,1,8.3,6.9c9,10,17.4,24.1,25.5,35,3.6,4.9,5,12,4.2,18-3.4-4.4-7.4-13.6-10.3-18.2-4.4-7-27.4-37.2-37.7-42.2-.6-.3-.7-1.6-.8-3a2.8,2.8,0,0,1,1.7-2.7Zm121,50.9c-23.1-8.8-45.9-13.7-68.8.7-12.5-20.3-25.8-39.6-46.9-53.9,20-2.9,63.4,3.2,69.9,7.8,11.7,5.8,32.7,29.9,45.8,45.4ZM305.8,225c-27.2,2.1-45.2,16.7-60.5,35.9-2.6-9.9-.6-32,.4-38.6,2.6-18.3,13.7-36.2,14.4-37ZM100.2,203.7l2-1.2c23.7,17.2,35.9,43.1,50.3,68.3.2-1.6.4-2.8.5-3.9,1.2-15.7,1.1-16,15.9-22.2,4-1.7,8.6-1.9,13-2.5,16-2,31,2,44.5,10.2,6.5,3.9,11.5,10.5,17.3,15.9,9-9.3,16.9-20.3,27.4-27.7s23.5-12,37.4-10.8c-1.1,9-1.1,9-9,10.1a60.9,60.9,0,0,1-7.3,1c-14.6.3-23.7,10.5-34,18.4,14.8-8.8,29-19,47.5-16.2,1.4,6.9-3.5,6.3-7,7.1-9.3,2.3-18.9,3.6-27.7,6.9s-14.7,8-21.7,12.6c-3.1,2.2-5.5,2.3-8.8,1-24.5-9.4-48.6-9.5-72.3,2.6-4.6,2.4-9.5,4.4-14.5,6.7-6.7-10.3-13-21-20.3-30.9-9.6-12.8-20.3-24.9-30.2-37.4-1.5-1.9-3.3-4-3.5-6.4A1.4,1.4,0,0,1,100.2,203.7Z"/><path d="M137.7,300.8c-38.1-16.3-75.2-48.1-79.6-107C52.8,123.7,114.1,69.7,217.3,93c0,0-68-14.6-110.5,78.4C71.3,249.1,137.7,300.8,137.7,300.8Z"/><path d="M225.9,296.3c26.7,10.5,60.4,12.7,91.1-14.2,36.6-32,32.6-88.3-29.6-126.9,0,0,40.6,25.8,16.4,92.3C283.7,303,225.9,296.3,225.9,296.3Z"/><path d="M274.9,70.3c0,15.4-15.1,30.9-35.4,27.9-16.5-2.5-30.1-12.5-30.1-27.9s12.2-34.9,32.7-32.6C258.7,39.5,274.9,48.5,274.9,70.3Z"/><path d="M333.5,135.9c0,12.6-12.4,25.3-29.1,22.8-13.5-2-24.7-10.2-24.7-22.8s10-28.7,26.9-26.8C320.1,110.5,333.5,118,333.5,135.9Z"/></svg>